<?xml version="1.0"?><svg xmlns="http://www.w3.org/2000/svg" viewBox="0 0 1088 1088" width="1024" height="1024"><rect width="1088" height="1088" fill="white"/><rect x="402" y="82" width="28" height="28" rx="10.64" ry="10.64" fill="#dda228"/><rect x="466" y="82" width="124" height="28" rx="10.64" ry="10.64" fill="#dda228"/><rect x="690" y="82" width="60" height="28" rx="10.64" ry="10.64" fill="#dda228"/><rect x="370" y="114" width="28" height="28" rx="10.64" ry="10.64" fill="#dda228"/><rect x="498" y="114" width="188" height="28" rx="10.64" ry="10.64" fill="#dda228"/><rect x="338" y="146" width="28" height="28" rx="10.64" ry="10.64" fill="#dda228"/><rect x="498" y="146" width="28" height="28" rx="10.64" ry="10.64" fill="#dda228"/><rect x="562" y="146" width="28" height="28" rx="10.64" ry="10.64" fill="#dda228"/><rect x="658" y="146" width="60" height="28" rx="10.64" ry="10.64" fill="#dda228"/><rect x="338" y="178" width="28" height="28" rx="10.64" ry="10.64" fill="#dda228"/><rect x="434" y="178" width="60" height="28" rx="10.64" ry="10.64" fill="#dda228"/><rect x="530" y="178" width="60" height="28" rx="10.64" ry="10.64" fill="#dda228"/><rect x="626" y="178" width="28" height="28" rx="10.64" ry="10.64" fill="#dda228"/><rect x="338" y="210" width="60" height="28" rx="10.64" ry="10.64" fill="#dda228"/><rect x="434" y="210" width="60" height="28" rx="10.64" ry="10.64" fill="#dda228"/><rect x="562" y="210" width="188" height="28" rx="10.64" ry="10.64" fill="#dda228"/><rect x="338" y="242" width="28" height="28" rx="10.64" ry="10.64" fill="#dda228"/><rect x="402" y="242" width="60" height="28" rx="10.64" ry="10.64" fill="#dda228"/><rect x="626" y="242" width="28" height="28" rx="10.64" ry="10.64" fill="#dda228"/><rect x="722" y="242" width="28" height="28" rx="10.64" ry="10.64" fill="#dda228"/><rect x="338" y="274" width="28" height="28" rx="10.64" ry="10.64" fill="#dda228"/><rect x="402" y="274" width="28" height="28" rx="10.64" ry="10.64" fill="#dda228"/><rect x="466" y="274" width="28" height="28" rx="10.64" ry="10.64" fill="#dda228"/><rect x="530" y="274" width="28" height="28" rx="10.64" ry="10.64" fill="#dda228"/><rect x="594" y="274" width="28" height="28" rx="10.64" ry="10.64" fill="#dda228"/><rect x="658" y="274" width="28" height="28" rx="10.64" ry="10.64" fill="#dda228"/><rect x="722" y="274" width="28" height="28" rx="10.64" ry="10.64" fill="#dda228"/><rect x="338" y="306" width="28" height="28" rx="10.64" ry="10.64" fill="#dda228"/><rect x="402" y="306" width="28" height="28" rx="10.64" ry="10.64" fill="#dda228"/><rect x="466" y="306" width="28" height="28" rx="10.64" ry="10.64" fill="#dda228"/><rect x="530" y="306" width="28" height="28" rx="10.64" ry="10.64" fill="#dda228"/><rect x="594" y="306" width="28" height="28" rx="10.64" ry="10.64" fill="#dda228"/><rect x="722" y="306" width="28" height="28" rx="10.64" ry="10.64" fill="#dda228"/><rect x="82" y="338" width="28" height="28" rx="10.64" ry="10.64" fill="#dda228"/><rect x="146" y="338" width="156" height="28" rx="10.64" ry="10.64" fill="#dda228"/><rect x="370" y="338" width="28" height="28" rx="10.64" ry="10.64" fill="#dda228"/><rect x="594" y="338" width="60" height="28" rx="10.64" ry="10.64" fill="#dda228"/><rect x="690" y="338" width="28" height="28" rx="10.64" ry="10.64" fill="#dda228"/><rect x="786" y="338" width="156" height="28" rx="10.64" ry="10.64" fill="#dda228"/><rect x="82" y="370" width="92" height="28" rx="10.64" ry="10.64" fill="#dda228"/><rect x="242" y="370" width="28" height="28" rx="10.64" ry="10.64" fill="#dda228"/><rect x="306" y="370" width="92" height="28" rx="10.64" ry="10.64" fill="#dda228"/><rect x="434" y="370" width="28" height="28" rx="10.64" ry="10.64" fill="#dda228"/><rect x="498" y="370" width="92" height="28" rx="10.64" ry="10.64" fill="#dda228"/><rect x="626" y="370" width="252" height="28" rx="10.64" ry="10.64" fill="#dda228"/><rect x="978" y="370" width="28" height="28" rx="10.64" ry="10.64" fill="#dda228"/><rect x="82" y="402" width="60" height="28" rx="10.64" ry="10.64" fill="#dda228"/><rect x="274" y="402" width="92" height="28" rx="10.64" ry="10.64" fill="#dda228"/><rect x="466" y="402" width="156" height="28" rx="10.64" ry="10.64" fill="#dda228"/><rect x="658" y="402" width="28" height="28" rx="10.64" ry="10.64" fill="#dda228"/><rect x="722" y="402" width="28" height="28" rx="10.64" ry="10.64" fill="#dda228"/><rect x="82" y="434" width="28" height="28" rx="10.64" ry="10.64" fill="#dda228"/><rect x="146" y="434" width="124" height="28" rx="10.64" ry="10.64" fill="#dda228"/><rect x="306" y="434" width="28" height="28" rx="10.64" ry="10.64" fill="#dda228"/><rect x="370" y="434" width="28" height="28" rx="10.64" ry="10.64" fill="#dda228"/><rect x="466" y="434" width="60" height="28" rx="10.64" ry="10.64" fill="#dda228"/><rect x="562" y="434" width="28" height="28" rx="10.64" ry="10.64" fill="#dda228"/><rect x="754" y="434" width="28" height="28" rx="10.64" ry="10.64" fill="#dda228"/><rect x="818" y="434" width="28" height="28" rx="10.64" ry="10.64" fill="#dda228"/><rect x="882" y="434" width="28" height="28" rx="10.64" ry="10.64" fill="#dda228"/><rect x="946" y="434" width="28" height="28" rx="10.64" ry="10.64" fill="#dda228"/><rect x="82" y="466" width="28" height="28" rx="10.64" ry="10.64" fill="#dda228"/><rect x="146" y="466" width="92" height="28" rx="10.64" ry="10.64" fill="#dda228"/><rect x="274" y="466" width="28" height="28" rx="10.64" ry="10.64" fill="#dda228"/><rect x="338" y="466" width="92" height="28" rx="10.64" ry="10.64" fill="#dda228"/><rect x="530" y="466" width="60" height="28" rx="10.64" ry="10.64" fill="#dda228"/><rect x="626" y="466" width="28" height="28" rx="10.64" ry="10.64" fill="#dda228"/><rect x="882" y="466" width="60" height="28" rx="10.64" ry="10.64" fill="#dda228"/><rect x="114" y="498" width="92" height="28" rx="10.64" ry="10.64" fill="#dda228"/><rect x="370" y="498" width="60" height="28" rx="10.64" ry="10.64" fill="#dda228"/><rect x="466" y="498" width="28" height="28" rx="10.64" ry="10.64" fill="#dda228"/><rect x="562" y="498" width="60" height="28" rx="10.64" ry="10.64" fill="#dda228"/><rect x="690" y="498" width="124" height="28" rx="10.64" ry="10.64" fill="#dda228"/><rect x="850" y="498" width="28" height="28" rx="10.64" ry="10.64" fill="#dda228"/><rect x="978" y="498" width="28" height="28" rx="10.64" ry="10.64" fill="#dda228"/><rect x="274" y="530" width="28" height="28" rx="10.64" ry="10.64" fill="#dda228"/><rect x="434" y="530" width="28" height="28" rx="10.64" ry="10.64" fill="#dda228"/><rect x="626" y="530" width="60" height="28" rx="10.64" ry="10.64" fill="#dda228"/><rect x="722" y="530" width="28" height="28" rx="10.64" ry="10.64" fill="#dda228"/><rect x="786" y="530" width="60" height="28" rx="10.64" ry="10.64" fill="#dda228"/><rect x="882" y="530" width="60" height="28" rx="10.64" ry="10.64" fill="#dda228"/><rect x="146" y="562" width="124" height="28" rx="10.64" ry="10.64" fill="#dda228"/><rect x="306" y="562" width="60" height="28" rx="10.64" ry="10.64" fill="#dda228"/><rect x="402" y="562" width="60" height="28" rx="10.64" ry="10.64" fill="#dda228"/><rect x="530" y="562" width="28" height="28" rx="10.64" ry="10.64" fill="#dda228"/><rect x="594" y="562" width="28" height="28" rx="10.64" ry="10.64" fill="#dda228"/><rect x="722" y="562" width="28" height="28" rx="10.64" ry="10.64" fill="#dda228"/><rect x="786" y="562" width="92" height="28" rx="10.64" ry="10.64" fill="#dda228"/><rect x="946" y="562" width="28" height="28" rx="10.64" ry="10.64" fill="#dda228"/><rect x="82" y="594" width="60" height="28" rx="10.64" ry="10.64" fill="#dda228"/><rect x="178" y="594" width="124" height="28" rx="10.64" ry="10.64" fill="#dda228"/><rect x="402" y="594" width="92" height="28" rx="10.64" ry="10.64" fill="#dda228"/><rect x="626" y="594" width="28" height="28" rx="10.64" ry="10.64" fill="#dda228"/><rect x="818" y="594" width="28" height="28" rx="10.64" ry="10.64" fill="#dda228"/><rect x="882" y="594" width="60" height="28" rx="10.64" ry="10.64" fill="#dda228"/><rect x="82" y="626" width="92" height="28" rx="10.64" ry="10.64" fill="#dda228"/><rect x="210" y="626" width="28" height="28" rx="10.64" ry="10.64" fill="#dda228"/><rect x="370" y="626" width="60" height="28" rx="10.64" ry="10.64" fill="#dda228"/><rect x="498" y="626" width="92" height="28" rx="10.64" ry="10.64" fill="#dda228"/><rect x="658" y="626" width="220" height="28" rx="10.64" ry="10.64" fill="#dda228"/><rect x="914" y="626" width="28" height="28" rx="10.64" ry="10.64" fill="#dda228"/><rect x="978" y="626" width="28" height="28" rx="10.64" ry="10.64" fill="#dda228"/><rect x="82" y="658" width="28" height="28" rx="10.64" ry="10.64" fill="#dda228"/><rect x="210" y="658" width="92" height="28" rx="10.64" ry="10.64" fill="#dda228"/><rect x="338" y="658" width="60" height="28" rx="10.64" ry="10.64" fill="#dda228"/><rect x="498" y="658" width="124" height="28" rx="10.64" ry="10.64" fill="#dda228"/><rect x="786" y="658" width="60" height="28" rx="10.64" ry="10.64" fill="#dda228"/><rect x="914" y="658" width="28" height="28" rx="10.64" ry="10.64" fill="#dda228"/><rect x="82" y="690" width="28" height="28" rx="10.64" ry="10.64" fill="#dda228"/><rect x="178" y="690" width="60" height="28" rx="10.64" ry="10.64" fill="#dda228"/><rect x="306" y="690" width="28" height="28" rx="10.64" ry="10.64" fill="#dda228"/><rect x="370" y="690" width="60" height="28" rx="10.64" ry="10.64" fill="#dda228"/><rect x="498" y="690" width="28" height="28" rx="10.64" ry="10.64" fill="#dda228"/><rect x="594" y="690" width="28" height="28" rx="10.64" ry="10.64" fill="#dda228"/><rect x="690" y="690" width="60" height="28" rx="10.64" ry="10.64" fill="#dda228"/><rect x="818" y="690" width="60" height="28" rx="10.64" ry="10.64" fill="#dda228"/><rect x="946" y="690" width="28" height="28" rx="10.64" ry="10.64" fill="#dda228"/><rect x="82" y="722" width="28" height="28" rx="10.64" ry="10.64" fill="#dda228"/><rect x="274" y="722" width="92" height="28" rx="10.64" ry="10.64" fill="#dda228"/><rect x="434" y="722" width="60" height="28" rx="10.64" ry="10.64" fill="#dda228"/><rect x="530" y="722" width="28" height="28" rx="10.64" ry="10.64" fill="#dda228"/><rect x="626" y="722" width="252" height="28" rx="10.64" ry="10.64" fill="#dda228"/><rect x="914" y="722" width="92" height="28" rx="10.64" ry="10.64" fill="#dda228"/><rect x="338" y="754" width="28" height="28" rx="10.64" ry="10.64" fill="#dda228"/><rect x="434" y="754" width="60" height="28" rx="10.64" ry="10.64" fill="#dda228"/><rect x="626" y="754" width="60" height="28" rx="10.64" ry="10.64" fill="#dda228"/><rect x="722" y="754" width="28" height="28" rx="10.64" ry="10.64" fill="#dda228"/><rect x="850" y="754" width="156" height="28" rx="10.64" ry="10.64" fill="#dda228"/><rect x="402" y="786" width="60" height="28" rx="10.64" ry="10.64" fill="#dda228"/><rect x="562" y="786" width="92" height="28" rx="10.64" ry="10.64" fill="#dda228"/><rect x="690" y="786" width="60" height="28" rx="10.64" ry="10.64" fill="#dda228"/><rect x="786" y="786" width="28" height="28" rx="10.64" ry="10.64" fill="#dda228"/><rect x="850" y="786" width="92" height="28" rx="10.64" ry="10.64" fill="#dda228"/><rect x="338" y="818" width="60" height="28" rx="10.64" ry="10.64" fill="#dda228"/><rect x="434" y="818" width="28" height="28" rx="10.64" ry="10.64" fill="#dda228"/><rect x="530" y="818" width="92" height="28" rx="10.64" ry="10.64" fill="#dda228"/><rect x="658" y="818" width="92" height="28" rx="10.64" ry="10.64" fill="#dda228"/><rect x="850" y="818" width="28" height="28" rx="10.64" ry="10.64" fill="#dda228"/><rect x="946" y="818" width="28" height="28" rx="10.64" ry="10.64" fill="#dda228"/><rect x="338" y="850" width="28" height="28" rx="10.64" ry="10.64" fill="#dda228"/><rect x="626" y="850" width="28" height="28" rx="10.64" ry="10.64" fill="#dda228"/><rect x="722" y="850" width="156" height="28" rx="10.64" ry="10.64" fill="#dda228"/><rect x="914" y="850" width="60" height="28" rx="10.64" ry="10.64" fill="#dda228"/><rect x="338" y="882" width="28" height="28" rx="10.64" ry="10.64" fill="#dda228"/><rect x="498" y="882" width="60" height="28" rx="10.64" ry="10.64" fill="#dda228"/><rect x="594" y="882" width="28" height="28" rx="10.64" ry="10.64" fill="#dda228"/><rect x="658" y="882" width="60" height="28" rx="10.64" ry="10.64" fill="#dda228"/><rect x="818" y="882" width="28" height="28" rx="10.64" ry="10.64" fill="#dda228"/><rect x="882" y="882" width="124" height="28" rx="10.64" ry="10.64" fill="#dda228"/><rect x="338" y="914" width="28" height="28" rx="10.64" ry="10.64" fill="#dda228"/><rect x="434" y="914" width="60" height="28" rx="10.64" ry="10.64" fill="#dda228"/><rect x="562" y="914" width="124" height="28" rx="10.64" ry="10.64" fill="#dda228"/><rect x="722" y="914" width="252" height="28" rx="10.64" ry="10.64" fill="#dda228"/><rect x="434" y="946" width="28" height="28" rx="10.64" ry="10.64" fill="#dda228"/><rect x="530" y="946" width="28" height="28" rx="10.64" ry="10.64" fill="#dda228"/><rect x="594" y="946" width="28" height="28" rx="10.64" ry="10.64" fill="#dda228"/><rect x="722" y="946" width="60" height="28" rx="10.64" ry="10.64" fill="#dda228"/><rect x="818" y="946" width="28" height="28" rx="10.64" ry="10.64" fill="#dda228"/><rect x="882" y="946" width="28" height="28" rx="10.64" ry="10.64" fill="#dda228"/><rect x="946" y="946" width="28" height="28" rx="10.64" ry="10.64" fill="#dda228"/><rect x="338" y="978" width="28" height="28" rx="10.64" ry="10.64" fill="#dda228"/><rect x="402" y="978" width="28" height="28" rx="10.64" ry="10.64" fill="#dda228"/><rect x="466" y="978" width="60" height="28" rx="10.64" ry="10.64" fill="#dda228"/><rect x="626" y="978" width="28" height="28" rx="10.64" ry="10.64" fill="#dda228"/><rect x="690" y="978" width="28" height="28" rx="10.64" ry="10.64" fill="#dda228"/><rect x="818" y="978" width="124" height="28" rx="10.64" ry="10.64" fill="#dda228"/><rect x="508.64" y="110" width="6.719999999999999" height="4" fill="#dda228"/><rect x="540.64" y="110" width="6.719999999999999" height="4" fill="#dda228"/><rect x="572.64" y="110" width="6.719999999999999" height="4" fill="#dda228"/><rect x="508.64" y="142" width="6.719999999999999" height="4" fill="#dda228"/><rect x="572.64" y="142" width="6.719999999999999" height="4" fill="#dda228"/><rect x="668.64" y="142" width="6.719999999999999" height="4" fill="#dda228"/><rect x="348.64" y="174" width="6.719999999999999" height="4" fill="#dda228"/><rect x="572.64" y="174" width="6.719999999999999" height="4" fill="#dda228"/><rect x="348.64" y="206" width="6.719999999999999" height="4" fill="#dda228"/><rect x="444.64" y="206" width="6.719999999999999" height="4" fill="#dda228"/><rect x="476.64" y="206" width="6.719999999999999" height="4" fill="#dda228"/><rect x="572.64" y="206" width="6.719999999999999" height="4" fill="#dda228"/><rect x="636.64" y="206" width="6.719999999999999" height="4" fill="#dda228"/><rect x="348.64" y="238" width="6.719999999999999" height="4" fill="#dda228"/><rect x="444.64" y="238" width="6.719999999999999" height="4" fill="#dda228"/><rect x="636.64" y="238" width="6.719999999999999" height="4" fill="#dda228"/><rect x="732.64" y="238" width="6.719999999999999" height="4" fill="#dda228"/><rect x="348.64" y="270" width="6.719999999999999" height="4" fill="#dda228"/><rect x="412.64" y="270" width="6.719999999999999" height="4" fill="#dda228"/><rect x="732.64" y="270" width="6.719999999999999" height="4" fill="#dda228"/><rect x="348.64" y="302" width="6.719999999999999" height="4" fill="#dda228"/><rect x="412.64" y="302" width="6.719999999999999" height="4" fill="#dda228"/><rect x="476.64" y="302" width="6.719999999999999" height="4" fill="#dda228"/><rect x="540.64" y="302" width="6.719999999999999" height="4" fill="#dda228"/><rect x="604.64" y="302" width="6.719999999999999" height="4" fill="#dda228"/><rect x="732.64" y="302" width="6.719999999999999" height="4" fill="#dda228"/><rect x="604.64" y="334" width="6.719999999999999" height="4" fill="#dda228"/><rect x="92.64" y="366" width="6.719999999999999" height="4" fill="#dda228"/><rect x="156.64" y="366" width="6.719999999999999" height="4" fill="#dda228"/><rect x="252.64" y="366" width="6.719999999999999" height="4" fill="#dda228"/><rect x="380.64" y="366" width="6.719999999999999" height="4" fill="#dda228"/><rect x="636.64" y="366" width="6.719999999999999" height="4" fill="#dda228"/><rect x="700.64" y="366" width="6.719999999999999" height="4" fill="#dda228"/><rect x="796.64" y="366" width="6.719999999999999" height="4" fill="#dda228"/><rect x="828.64" y="366" width="6.719999999999999" height="4" fill="#dda228"/><rect x="860.64" y="366" width="6.719999999999999" height="4" fill="#dda228"/><rect x="92.64" y="398" width="6.719999999999999" height="4" fill="#dda228"/><rect x="124.64" y="398" width="6.719999999999999" height="4" fill="#dda228"/><rect x="316.64" y="398" width="6.719999999999999" height="4" fill="#dda228"/><rect x="348.64" y="398" width="6.719999999999999" height="4" fill="#dda228"/><rect x="508.64" y="398" width="6.719999999999999" height="4" fill="#dda228"/><rect x="540.64" y="398" width="6.719999999999999" height="4" fill="#dda228"/><rect x="572.64" y="398" width="6.719999999999999" height="4" fill="#dda228"/><rect x="668.64" y="398" width="6.719999999999999" height="4" fill="#dda228"/><rect x="732.64" y="398" width="6.719999999999999" height="4" fill="#dda228"/><rect x="92.64" y="430" width="6.719999999999999" height="4" fill="#dda228"/><rect x="316.64" y="430" width="6.719999999999999" height="4" fill="#dda228"/><rect x="476.64" y="430" width="6.719999999999999" height="4" fill="#dda228"/><rect x="508.64" y="430" width="6.719999999999999" height="4" fill="#dda228"/><rect x="572.64" y="430" width="6.719999999999999" height="4" fill="#dda228"/><rect x="92.64" y="462" width="6.719999999999999" height="4" fill="#dda228"/><rect x="156.64" y="462" width="6.719999999999999" height="4" fill="#dda228"/><rect x="188.64" y="462" width="6.719999999999999" height="4" fill="#dda228"/><rect x="220.64" y="462" width="6.719999999999999" height="4" fill="#dda228"/><rect x="380.64" y="462" width="6.719999999999999" height="4" fill="#dda228"/><rect x="572.64" y="462" width="6.719999999999999" height="4" fill="#dda228"/><rect x="892.64" y="462" width="6.719999999999999" height="4" fill="#dda228"/><rect x="156.64" y="494" width="6.719999999999999" height="4" fill="#dda228"/><rect x="188.64" y="494" width="6.719999999999999" height="4" fill="#dda228"/><rect x="380.64" y="494" width="6.719999999999999" height="4" fill="#dda228"/><rect x="412.64" y="494" width="6.719999999999999" height="4" fill="#dda228"/><rect x="572.64" y="494" width="6.719999999999999" height="4" fill="#dda228"/><rect x="732.64" y="526" width="6.719999999999999" height="4" fill="#dda228"/><rect x="796.64" y="526" width="6.719999999999999" height="4" fill="#dda228"/><rect x="444.64" y="558" width="6.719999999999999" height="4" fill="#dda228"/><rect x="732.64" y="558" width="6.719999999999999" height="4" fill="#dda228"/><rect x="796.64" y="558" width="6.719999999999999" height="4" fill="#dda228"/><rect x="828.64" y="558" width="6.719999999999999" height="4" fill="#dda228"/><rect x="188.64" y="590" width="6.719999999999999" height="4" fill="#dda228"/><rect x="220.64" y="590" width="6.719999999999999" height="4" fill="#dda228"/><rect x="252.64" y="590" width="6.719999999999999" height="4" fill="#dda228"/><rect x="412.64" y="590" width="6.719999999999999" height="4" fill="#dda228"/><rect x="444.64" y="590" width="6.719999999999999" height="4" fill="#dda228"/><rect x="828.64" y="590" width="6.719999999999999" height="4" fill="#dda228"/><rect x="92.64" y="622" width="6.719999999999999" height="4" fill="#dda228"/><rect x="124.64" y="622" width="6.719999999999999" height="4" fill="#dda228"/><rect x="220.64" y="622" width="6.719999999999999" height="4" fill="#dda228"/><rect x="412.64" y="622" width="6.719999999999999" height="4" fill="#dda228"/><rect x="828.64" y="622" width="6.719999999999999" height="4" fill="#dda228"/><rect x="924.64" y="622" width="6.719999999999999" height="4" fill="#dda228"/><rect x="92.64" y="654" width="6.719999999999999" height="4" fill="#dda228"/><rect x="220.64" y="654" width="6.719999999999999" height="4" fill="#dda228"/><rect x="380.64" y="654" width="6.719999999999999" height="4" fill="#dda228"/><rect x="508.64" y="654" width="6.719999999999999" height="4" fill="#dda228"/><rect x="540.64" y="654" width="6.719999999999999" height="4" fill="#dda228"/><rect x="572.64" y="654" width="6.719999999999999" height="4" fill="#dda228"/><rect x="796.64" y="654" width="6.719999999999999" height="4" fill="#dda228"/><rect x="828.64" y="654" width="6.719999999999999" height="4" fill="#dda228"/><rect x="924.64" y="654" width="6.719999999999999" height="4" fill="#dda228"/><rect x="92.64" y="686" width="6.719999999999999" height="4" fill="#dda228"/><rect x="220.64" y="686" width="6.719999999999999" height="4" fill="#dda228"/><rect x="380.64" y="686" width="6.719999999999999" height="4" fill="#dda228"/><rect x="508.64" y="686" width="6.719999999999999" height="4" fill="#dda228"/><rect x="604.64" y="686" width="6.719999999999999" height="4" fill="#dda228"/><rect x="828.64" y="686" width="6.719999999999999" height="4" fill="#dda228"/><rect x="92.64" y="718" width="6.719999999999999" height="4" fill="#dda228"/><rect x="316.64" y="718" width="6.719999999999999" height="4" fill="#dda228"/><rect x="700.64" y="718" width="6.719999999999999" height="4" fill="#dda228"/><rect x="732.64" y="718" width="6.719999999999999" height="4" fill="#dda228"/><rect x="828.64" y="718" width="6.719999999999999" height="4" fill="#dda228"/><rect x="860.64" y="718" width="6.719999999999999" height="4" fill="#dda228"/><rect x="956.64" y="718" width="6.719999999999999" height="4" fill="#dda228"/><rect x="348.64" y="750" width="6.719999999999999" height="4" fill="#dda228"/><rect x="444.64" y="750" width="6.719999999999999" height="4" fill="#dda228"/><rect x="476.64" y="750" width="6.719999999999999" height="4" fill="#dda228"/><rect x="636.64" y="750" width="6.719999999999999" height="4" fill="#dda228"/><rect x="668.64" y="750" width="6.719999999999999" height="4" fill="#dda228"/><rect x="732.64" y="750" width="6.719999999999999" height="4" fill="#dda228"/><rect x="860.64" y="750" width="6.719999999999999" height="4" fill="#dda228"/><rect x="924.64" y="750" width="6.719999999999999" height="4" fill="#dda228"/><rect x="956.64" y="750" width="6.719999999999999" height="4" fill="#dda228"/><rect x="988.64" y="750" width="6.719999999999999" height="4" fill="#dda228"/><rect x="444.64" y="782" width="6.719999999999999" height="4" fill="#dda228"/><rect x="636.64" y="782" width="6.719999999999999" height="4" fill="#dda228"/><rect x="732.64" y="782" width="6.719999999999999" height="4" fill="#dda228"/><rect x="860.64" y="782" width="6.719999999999999" height="4" fill="#dda228"/><rect x="892.64" y="782" width="6.719999999999999" height="4" fill="#dda228"/><rect x="924.64" y="782" width="6.719999999999999" height="4" fill="#dda228"/><rect x="444.64" y="814" width="6.719999999999999" height="4" fill="#dda228"/><rect x="572.64" y="814" width="6.719999999999999" height="4" fill="#dda228"/><rect x="604.64" y="814" width="6.719999999999999" height="4" fill="#dda228"/><rect x="700.64" y="814" width="6.719999999999999" height="4" fill="#dda228"/><rect x="732.64" y="814" width="6.719999999999999" height="4" fill="#dda228"/><rect x="860.64" y="814" width="6.719999999999999" height="4" fill="#dda228"/><rect x="348.64" y="846" width="6.719999999999999" height="4" fill="#dda228"/><rect x="732.64" y="846" width="6.719999999999999" height="4" fill="#dda228"/><rect x="860.64" y="846" width="6.719999999999999" height="4" fill="#dda228"/><rect x="956.64" y="846" width="6.719999999999999" height="4" fill="#dda228"/><rect x="348.64" y="878" width="6.719999999999999" height="4" fill="#dda228"/><rect x="828.64" y="878" width="6.719999999999999" height="4" fill="#dda228"/><rect x="924.64" y="878" width="6.719999999999999" height="4" fill="#dda228"/><rect x="956.64" y="878" width="6.719999999999999" height="4" fill="#dda228"/><rect x="348.64" y="910" width="6.719999999999999" height="4" fill="#dda228"/><rect x="604.64" y="910" width="6.719999999999999" height="4" fill="#dda228"/><rect x="668.64" y="910" width="6.719999999999999" height="4" fill="#dda228"/><rect x="828.64" y="910" width="6.719999999999999" height="4" fill="#dda228"/><rect x="892.64" y="910" width="6.719999999999999" height="4" fill="#dda228"/><rect x="924.64" y="910" width="6.719999999999999" height="4" fill="#dda228"/><rect x="956.64" y="910" width="6.719999999999999" height="4" fill="#dda228"/><rect x="444.64" y="942" width="6.719999999999999" height="4" fill="#dda228"/><rect x="604.64" y="942" width="6.719999999999999" height="4" fill="#dda228"/><rect x="732.64" y="942" width="6.719999999999999" height="4" fill="#dda228"/><rect x="764.64" y="942" width="6.719999999999999" height="4" fill="#dda228"/><rect x="828.64" y="942" width="6.719999999999999" height="4" fill="#dda228"/><rect x="892.64" y="942" width="6.719999999999999" height="4" fill="#dda228"/><rect x="956.64" y="942" width="6.719999999999999" height="4" fill="#dda228"/><rect x="828.64" y="974" width="6.719999999999999" height="4" fill="#dda228"/><rect x="892.64" y="974" width="6.719999999999999" height="4" fill="#dda228"/><rect x="80" y="80" width="224" height="224" rx="48" ry="48" fill="#dda228"/><rect x="112" y="112" width="160" height="160" rx="32" ry="32" fill="white"/><rect x="144" y="144" width="96" height="96" rx="22.4" ry="22.4" fill="#dda228"/><rect x="784" y="80" width="224" height="224" rx="48" ry="48" fill="#dda228"/><rect x="816" y="112" width="160" height="160" rx="32" ry="32" fill="white"/><rect x="848" y="144" width="96" height="96" rx="22.4" ry="22.4" fill="#dda228"/><rect x="80" y="784" width="224" height="224" rx="48" ry="48" fill="#dda228"/><rect x="112" y="816" width="160" height="160" rx="32" ry="32" fill="white"/><rect x="144" y="848" width="96" height="96" rx="22.4" ry="22.4" fill="#dda228"/></svg>